<?xml version="1.0" encoding="UTF-8" standalone="no"?>
<!DOCTYPE svg PUBLIC "-//W3C//DTD SVG 1.1//EN" "http://www.w3.org/Graphics/SVG/1.1/DTD/svg11.dtd">
<svg width="100%" height="100%" viewBox="0 0 1024 547" version="1.1" xmlns="http://www.w3.org/2000/svg" xmlns:xlink="http://www.w3.org/1999/xlink" xml:space="preserve" xmlns:serif="http://www.serif.com/" style="fill-rule:evenodd;clip-rule:evenodd;stroke-linecap:round;stroke-linejoin:round;stroke-miterlimit:1.5;">
    <g transform="matrix(1,0,0,1,-1152,0)">
        <g id="AutoSugar_slim" transform="matrix(1,0,0,0.53418,1152,0)">
            <rect x="0" y="0" width="1024" height="1024" style="fill:none;"/>
            <g id="Satnav" transform="matrix(1.034712,0,0,1.937011,-58.869259,-449.094214)">
                <g transform="matrix(1,0,0,1,-168.468165,-222.484038)">
                    <path d="M319.026,824.445C327.944,756.809 336.863,689.173 345.781,621.536C347.886,605.529 346.829,562.64 391.624,548.986C396.357,547.543 396.303,547.04 634.5,547.152C835.062,547.247 1037.201,546.859 1041.507,547.444C1095.78,554.824 1094.344,621.214 1094.754,624.467C1116.759,798.719 1126.191,836.542 1120.701,854.563C1109.395,891.674 1072.689,891.692 1067.499,891.694C1011.339,891.722 399.905,892.024 365.495,891.757C355.441,891.679 335.619,884.853 323.953,865.236C315.557,851.12 318.602,827.705 319.026,824.445Z" style="fill:rgb(96,100,107);"/>
                </g>
                <g transform="matrix(1,0,0,1,-168.468165,-222.484038)">
                    <path d="M934.491,556.381C1030.222,556.186 1030.21,555.775 1038.504,556.444C1056.284,557.879 1070.999,574.384 1073.137,576.782C1082,592.209 1080.564,592.803 1087.463,644.505C1094.358,696.854 1101.254,749.204 1108.15,801.553C1110.382,817.811 1125.847,870.861 1074.517,878.988C1018.756,879.243 1018.791,878.905 377.501,879.08C314.204,879.097 328.663,828.104 332.679,796.522C337.522,760.168 342.364,723.814 347.207,687.46C359.665,592.545 356.643,579.676 380.756,563.877C393.308,555.653 394.285,556.271 529.5,556.258C561.899,556.254 908.525,556.22 934.491,556.381Z" style="fill:rgb(38,41,51);"/>
                </g>
                <path d="M803.452,362.939L803.452,626.869C803.452,628.591 802.054,629.989 800.332,629.989L302.248,629.989C300.526,629.989 299.128,628.591 299.128,626.869L299.128,362.939C299.128,361.217 300.526,359.819 302.248,359.819L800.332,359.819C802.054,359.819 803.452,361.217 803.452,362.939Z" style="fill:rgb(244,239,228);"/>
            </g>
            <g transform="matrix(1,0,0,1.872029,0,-444.868104)">
                <path d="M553,466L553,522C553,527.519 548.519,532 543,532L289,532C283.481,532 279,527.519 279,522L279,466C279,460.481 283.481,456 289,456L543,456C548.519,456 553,460.481 553,466Z" style="fill:rgb(213,149,123);"/>
            </g>
            <g transform="matrix(1,0,0,1.872029,0,-277.805148)">
                <path d="M553,466L553,522C553,527.519 548.519,532 543,532L289,532C283.481,532 279,527.519 279,522L279,466C279,460.481 283.481,456 289,456L543,456C548.519,456 553,460.481 553,466Z" style="fill:rgb(213,149,123);"/>
            </g>
            <g transform="matrix(0.64917,0,0,4.070226,385.123173,-1447.245841)">
                <path d="M553,460.599L553,527.401C553,529.939 546.098,532 537.596,532L294.404,532C285.902,532 279,529.939 279,527.401L279,460.599C279,458.061 285.902,456 294.404,456L537.596,456C546.098,456 553,458.061 553,460.599Z" style="fill:rgb(213,149,123);"/>
            </g>
            <g transform="matrix(0.234767,0,0,1.471966,614.2879,-399.097315)">
                <path d="M553,468.718L553,519.282C553,526.301 533.914,532 510.405,532L321.595,532C298.086,532 279,526.301 279,519.282L279,468.718C279,461.699 298.086,456 321.595,456L510.405,456C533.914,456 553,461.699 553,468.718Z" style="fill:rgb(213,149,123);"/>
            </g>
            <g transform="matrix(0.234767,0,0,1.471966,536.720005,-399.097315)">
                <path d="M553,468.718L553,519.282C553,526.301 533.914,532 510.405,532L321.595,532C298.086,532 279,526.301 279,519.282L279,468.718C279,461.699 298.086,456 321.595,456L510.405,456C533.914,456 553,461.699 553,468.718Z" style="fill:rgb(221,82,24);"/>
            </g>
            <g transform="matrix(0.973855,-0.425269,0.22717,1.823085,-113.693053,-151.586012)">
                <path d="M619,559.447L619,533.821L668.392,533.821L668.392,510.026L705,546.634L668.392,583.242L668.392,559.447L619,559.447Z" style="fill:rgb(113,187,110);stroke:rgb(221,82,24);stroke-width:4.17px;"/>
            </g>
            <g transform="matrix(1,0,0,1.872029,493.472501,-144.891072)">
                <rect x="250.642" y="461" width="28.358" height="28.358" style="fill:rgb(244,239,228);"/>
            </g>
        </g>
    </g>
</svg>
